<mxfile host="app.diagrams.net" modified="2024-03-08T10:37:07.755Z" agent="Mozilla/5.0 (Windows NT 10.0; Win64; x64) AppleWebKit/537.36 (KHTML, like Gecko) Chrome/122.0.0.0 Safari/537.36" etag="qZrhXxdlvCEa8LfAGPtK" version="24.0.2" type="device">
  <diagram name="Страница — 1" id="VEveGzfzLPNnsSKiKBnb">
    <mxGraphModel dx="989" dy="538" grid="0" gridSize="10" guides="0" tooltips="1" connect="1" arrows="1" fold="1" page="0" pageScale="1" pageWidth="827" pageHeight="1169" math="0" shadow="0">
      <root>
        <mxCell id="0" />
        <mxCell id="1" parent="0" />
        <mxCell id="GZfBrPirwMgl9o36XDPX-37" value="" style="rounded=0;whiteSpace=wrap;html=1;fillColor=#CCCCCC;strokeColor=none;" vertex="1" parent="1">
          <mxGeometry x="640" y="420" width="80" height="40" as="geometry" />
        </mxCell>
        <mxCell id="GZfBrPirwMgl9o36XDPX-36" value="" style="rounded=0;whiteSpace=wrap;html=1;fillColor=#CCCCCC;strokeColor=none;" vertex="1" parent="1">
          <mxGeometry x="640" y="180" width="80" height="40" as="geometry" />
        </mxCell>
        <mxCell id="GZfBrPirwMgl9o36XDPX-35" value="" style="rounded=0;whiteSpace=wrap;html=1;fillColor=#CCCCCC;strokeColor=none;" vertex="1" parent="1">
          <mxGeometry x="640" y="360" width="80" height="40" as="geometry" />
        </mxCell>
        <mxCell id="GZfBrPirwMgl9o36XDPX-33" value="" style="rounded=0;whiteSpace=wrap;html=1;fillColor=#CCCCCC;strokeColor=none;" vertex="1" parent="1">
          <mxGeometry x="640" y="280" width="80" height="40" as="geometry" />
        </mxCell>
        <mxCell id="GZfBrPirwMgl9o36XDPX-32" value="" style="rounded=0;whiteSpace=wrap;html=1;fillColor=#CCCCCC;strokeColor=none;" vertex="1" parent="1">
          <mxGeometry x="640" y="120" width="80" height="40" as="geometry" />
        </mxCell>
        <mxCell id="GZfBrPirwMgl9o36XDPX-31" value="" style="rounded=0;whiteSpace=wrap;html=1;fillColor=#CCCCCC;strokeColor=none;" vertex="1" parent="1">
          <mxGeometry x="800" y="440" width="80" height="40" as="geometry" />
        </mxCell>
        <mxCell id="GZfBrPirwMgl9o36XDPX-30" value="" style="rounded=0;whiteSpace=wrap;html=1;fillColor=#CCCCCC;strokeColor=none;" vertex="1" parent="1">
          <mxGeometry x="800" y="400" width="80" height="40" as="geometry" />
        </mxCell>
        <mxCell id="GZfBrPirwMgl9o36XDPX-29" value="" style="rounded=0;whiteSpace=wrap;html=1;fillColor=#CCCCCC;strokeColor=none;" vertex="1" parent="1">
          <mxGeometry x="800" y="320" width="80" height="40" as="geometry" />
        </mxCell>
        <mxCell id="GZfBrPirwMgl9o36XDPX-27" value="" style="rounded=0;whiteSpace=wrap;html=1;fillColor=#CCCCCC;strokeColor=none;" vertex="1" parent="1">
          <mxGeometry x="800" y="200" width="80" height="40" as="geometry" />
        </mxCell>
        <mxCell id="GZfBrPirwMgl9o36XDPX-26" value="" style="rounded=0;whiteSpace=wrap;html=1;fillColor=#CCCCCC;strokeColor=none;" vertex="1" parent="1">
          <mxGeometry x="800" y="280" width="80" height="40" as="geometry" />
        </mxCell>
        <mxCell id="GZfBrPirwMgl9o36XDPX-25" value="" style="rounded=0;whiteSpace=wrap;html=1;fillColor=#CCCCCC;strokeColor=none;" vertex="1" parent="1">
          <mxGeometry x="800" y="120" width="80" height="40" as="geometry" />
        </mxCell>
        <mxCell id="khdtYhaCzw99SLC-Dacm-15" value="&lt;font size=&quot;1&quot; face=&quot;Verdana&quot;&gt;&lt;b style=&quot;font-size: 14px;&quot;&gt;Heap &lt;/b&gt;&lt;span style=&quot;font-size: 14px;&quot;&gt;(dynamic objects)&lt;/span&gt;&lt;/font&gt;" style="rounded=0;whiteSpace=wrap;html=1;strokeColor=none;" parent="1" vertex="1">
          <mxGeometry x="200" y="360" width="320" height="40" as="geometry" />
        </mxCell>
        <mxCell id="khdtYhaCzw99SLC-Dacm-20" value="&lt;font style=&quot;font-size: 12px;&quot; face=&quot;Verdana&quot;&gt;free space&lt;/font&gt;" style="rounded=0;whiteSpace=wrap;html=1;strokeColor=none;fillStyle=auto;" parent="1" vertex="1">
          <mxGeometry x="200" y="320" width="320" height="40" as="geometry" />
        </mxCell>
        <mxCell id="khdtYhaCzw99SLC-Dacm-12" value="&lt;font size=&quot;1&quot; face=&quot;Verdana&quot;&gt;&lt;b style=&quot;font-size: 14px;&quot;&gt;Memory Mapping&amp;nbsp;&lt;/b&gt;&lt;span style=&quot;font-size: 14px;&quot;&gt;&lt;b&gt;Segment &lt;/b&gt;(DLL, etc.)&lt;/span&gt;&lt;/font&gt;" style="rounded=0;whiteSpace=wrap;html=1;strokeColor=none;" parent="1" vertex="1">
          <mxGeometry x="200" y="280" width="320" height="40" as="geometry" />
        </mxCell>
        <mxCell id="khdtYhaCzw99SLC-Dacm-1" value="&lt;font size=&quot;1&quot; face=&quot;Verdana&quot;&gt;&lt;b style=&quot;font-size: 14px;&quot;&gt;Kernel Segment &lt;/b&gt;&lt;span style=&quot;font-size: 14px;&quot;&gt;(protected)&lt;/span&gt;&lt;/font&gt;" style="rounded=0;whiteSpace=wrap;html=1;" parent="1" vertex="1">
          <mxGeometry x="200" y="120" width="320" height="40" as="geometry" />
        </mxCell>
        <mxCell id="khdtYhaCzw99SLC-Dacm-2" value="&lt;font face=&quot;Verdana&quot;&gt;offset&lt;/font&gt;" style="rounded=0;whiteSpace=wrap;html=1;fillColor=#CCCCCC;" parent="1" vertex="1">
          <mxGeometry x="200" y="160" width="320" height="20" as="geometry" />
        </mxCell>
        <mxCell id="khdtYhaCzw99SLC-Dacm-3" value="&lt;font face=&quot;Verdana&quot;&gt;&lt;font size=&quot;1&quot;&gt;&lt;b style=&quot;font-size: 14px;&quot;&gt;Stack&amp;nbsp;&lt;/b&gt;&lt;/font&gt;&lt;font style=&quot;font-size: 14px;&quot;&gt;(automatic objects)&lt;/font&gt;&lt;/font&gt;" style="rounded=0;whiteSpace=wrap;html=1;strokeColor=none;" parent="1" vertex="1">
          <mxGeometry x="200" y="180" width="320" height="40" as="geometry" />
        </mxCell>
        <mxCell id="khdtYhaCzw99SLC-Dacm-4" value="" style="shape=curlyBracket;whiteSpace=wrap;html=1;rounded=0;flipH=1;labelPosition=right;verticalLabelPosition=middle;align=left;verticalAlign=middle;direction=west;" parent="1" vertex="1">
          <mxGeometry x="170" y="120" width="20" height="40" as="geometry" />
        </mxCell>
        <mxCell id="khdtYhaCzw99SLC-Dacm-5" value="" style="shape=curlyBracket;whiteSpace=wrap;html=1;rounded=0;flipH=1;labelPosition=right;verticalLabelPosition=middle;align=left;verticalAlign=middle;direction=west;" parent="1" vertex="1">
          <mxGeometry x="170" y="160" width="20" height="360" as="geometry" />
        </mxCell>
        <mxCell id="khdtYhaCzw99SLC-Dacm-6" value="&lt;font face=&quot;Verdana&quot;&gt;0xC0000000&lt;/font&gt;" style="text;html=1;strokeColor=none;fillColor=none;align=center;verticalAlign=middle;whiteSpace=wrap;rounded=0;" parent="1" vertex="1">
          <mxGeometry x="520" y="150" width="90" height="20" as="geometry" />
        </mxCell>
        <mxCell id="khdtYhaCzw99SLC-Dacm-8" value="&lt;font face=&quot;Verdana&quot;&gt;offset&lt;/font&gt;" style="rounded=0;whiteSpace=wrap;html=1;fillColor=#CCCCCC;" parent="1" vertex="1">
          <mxGeometry x="200" y="260" width="320" height="20" as="geometry" />
        </mxCell>
        <mxCell id="khdtYhaCzw99SLC-Dacm-10" value="" style="shape=curlyBracket;whiteSpace=wrap;html=1;rounded=0;flipH=1;labelPosition=right;verticalLabelPosition=middle;align=left;verticalAlign=middle;direction=east;" parent="1" vertex="1">
          <mxGeometry x="530" y="180" width="20" height="80" as="geometry" />
        </mxCell>
        <mxCell id="khdtYhaCzw99SLC-Dacm-11" value="&lt;font face=&quot;Verdana&quot;&gt;Max size&lt;/font&gt;" style="text;html=1;strokeColor=none;fillColor=none;align=left;verticalAlign=middle;whiteSpace=wrap;rounded=0;" parent="1" vertex="1">
          <mxGeometry x="560" y="210" width="60" height="20" as="geometry" />
        </mxCell>
        <mxCell id="khdtYhaCzw99SLC-Dacm-18" value="&lt;font style=&quot;font-size: 12px;&quot; face=&quot;Verdana&quot;&gt;free space&lt;/font&gt;" style="rounded=0;whiteSpace=wrap;html=1;strokeColor=none;" parent="1" vertex="1">
          <mxGeometry x="200" y="220" width="320" height="40" as="geometry" />
        </mxCell>
        <mxCell id="khdtYhaCzw99SLC-Dacm-19" value="&lt;font face=&quot;Verdana&quot;&gt;offset&lt;/font&gt;" style="rounded=0;whiteSpace=wrap;html=1;fillColor=#CCCCCC;" parent="1" vertex="1">
          <mxGeometry x="200" y="400" width="320" height="20" as="geometry" />
        </mxCell>
        <mxCell id="khdtYhaCzw99SLC-Dacm-22" value="" style="endArrow=none;dashed=1;html=1;rounded=0;dashPattern=1 1;entryX=1;entryY=1;entryDx=0;entryDy=0;" parent="1" target="khdtYhaCzw99SLC-Dacm-3" edge="1">
          <mxGeometry width="50" height="50" relative="1" as="geometry">
            <mxPoint x="200" y="220" as="sourcePoint" />
            <mxPoint x="350" y="220" as="targetPoint" />
          </mxGeometry>
        </mxCell>
        <mxCell id="khdtYhaCzw99SLC-Dacm-29" value="" style="endArrow=none;html=1;rounded=0;entryX=1;entryY=0;entryDx=0;entryDy=0;" parent="1" target="khdtYhaCzw99SLC-Dacm-3" edge="1">
          <mxGeometry width="50" height="50" relative="1" as="geometry">
            <mxPoint x="200" y="180" as="sourcePoint" />
            <mxPoint x="290" y="190" as="targetPoint" />
          </mxGeometry>
        </mxCell>
        <mxCell id="khdtYhaCzw99SLC-Dacm-30" value="" style="endArrow=none;html=1;rounded=0;exitX=0;exitY=0;exitDx=0;exitDy=0;entryX=1;entryY=1;entryDx=0;entryDy=0;" parent="1" source="khdtYhaCzw99SLC-Dacm-8" target="khdtYhaCzw99SLC-Dacm-18" edge="1">
          <mxGeometry width="50" height="50" relative="1" as="geometry">
            <mxPoint x="200" y="280" as="sourcePoint" />
            <mxPoint x="250" y="230" as="targetPoint" />
          </mxGeometry>
        </mxCell>
        <mxCell id="khdtYhaCzw99SLC-Dacm-32" value="" style="endArrow=blockThin;html=1;rounded=0;endWidth=6.8533333333333335;endFill=1;exitX=1;exitY=0;exitDx=0;exitDy=0;strokeWidth=2;" parent="1" source="khdtYhaCzw99SLC-Dacm-3" edge="1">
          <mxGeometry width="50" height="50" relative="1" as="geometry">
            <mxPoint x="620" y="280" as="sourcePoint" />
            <mxPoint x="520" y="260" as="targetPoint" />
          </mxGeometry>
        </mxCell>
        <mxCell id="khdtYhaCzw99SLC-Dacm-33" value="" style="endArrow=none;dashed=1;html=1;dashPattern=1 1;strokeWidth=1;rounded=0;exitX=0;exitY=1;exitDx=0;exitDy=0;entryX=1;entryY=1;entryDx=0;entryDy=0;" parent="1" source="khdtYhaCzw99SLC-Dacm-12" target="khdtYhaCzw99SLC-Dacm-12" edge="1">
          <mxGeometry width="50" height="50" relative="1" as="geometry">
            <mxPoint x="270" y="380" as="sourcePoint" />
            <mxPoint x="320" y="330" as="targetPoint" />
          </mxGeometry>
        </mxCell>
        <mxCell id="khdtYhaCzw99SLC-Dacm-34" value="" style="endArrow=none;dashed=1;html=1;dashPattern=1 1;strokeWidth=1;rounded=0;exitX=0;exitY=1;exitDx=0;exitDy=0;entryX=1;entryY=1;entryDx=0;entryDy=0;" parent="1" source="khdtYhaCzw99SLC-Dacm-20" target="khdtYhaCzw99SLC-Dacm-20" edge="1">
          <mxGeometry width="50" height="50" relative="1" as="geometry">
            <mxPoint x="210" y="330" as="sourcePoint" />
            <mxPoint x="530" y="330" as="targetPoint" />
          </mxGeometry>
        </mxCell>
        <mxCell id="khdtYhaCzw99SLC-Dacm-35" value="" style="endArrow=blockThin;html=1;rounded=0;endWidth=6.8533333333333335;endFill=1;exitX=1;exitY=0;exitDx=0;exitDy=0;entryX=1;entryY=0.5;entryDx=0;entryDy=0;strokeWidth=2;" parent="1" source="khdtYhaCzw99SLC-Dacm-12" target="khdtYhaCzw99SLC-Dacm-20" edge="1">
          <mxGeometry width="50" height="50" relative="1" as="geometry">
            <mxPoint x="530" y="190" as="sourcePoint" />
            <mxPoint x="530" y="270" as="targetPoint" />
          </mxGeometry>
        </mxCell>
        <mxCell id="khdtYhaCzw99SLC-Dacm-38" value="" style="endArrow=blockThin;html=1;rounded=0;endWidth=6.8533333333333335;endFill=1;exitX=1;exitY=0;exitDx=0;exitDy=0;entryX=1;entryY=0.5;entryDx=0;entryDy=0;strokeWidth=2;" parent="1" source="khdtYhaCzw99SLC-Dacm-19" target="khdtYhaCzw99SLC-Dacm-20" edge="1">
          <mxGeometry width="50" height="50" relative="1" as="geometry">
            <mxPoint x="220" y="300" as="sourcePoint" />
            <mxPoint x="220" y="360" as="targetPoint" />
          </mxGeometry>
        </mxCell>
        <mxCell id="khdtYhaCzw99SLC-Dacm-39" value="&lt;font face=&quot;Verdana&quot;&gt;1 GB (Linux, x32)&lt;/font&gt;" style="text;html=1;strokeColor=none;fillColor=none;align=center;verticalAlign=middle;whiteSpace=wrap;rounded=0;" parent="1" vertex="1">
          <mxGeometry x="50" y="130" width="120" height="20" as="geometry" />
        </mxCell>
        <mxCell id="khdtYhaCzw99SLC-Dacm-42" value="&lt;font size=&quot;1&quot; face=&quot;Verdana&quot;&gt;&lt;b style=&quot;font-size: 14px;&quot;&gt;Data Segment&amp;nbsp;&lt;/b&gt;&lt;span style=&quot;font-size: 14px;&quot;&gt;(static objects)&lt;/span&gt;&lt;/font&gt;" style="rounded=0;whiteSpace=wrap;html=1;strokeColor=default;" parent="1" vertex="1">
          <mxGeometry x="200" y="420" width="320" height="40" as="geometry" />
        </mxCell>
        <mxCell id="khdtYhaCzw99SLC-Dacm-43" value="&lt;font size=&quot;1&quot; face=&quot;Verdana&quot;&gt;&lt;b style=&quot;font-size: 14px;&quot;&gt;Text Segment&amp;nbsp;&lt;/b&gt;&lt;span style=&quot;font-size: 14px;&quot;&gt;(binary image)&lt;/span&gt;&lt;/font&gt;" style="rounded=0;whiteSpace=wrap;html=1;strokeColor=default;" parent="1" vertex="1">
          <mxGeometry x="200" y="460" width="320" height="40" as="geometry" />
        </mxCell>
        <mxCell id="khdtYhaCzw99SLC-Dacm-44" value="&lt;font face=&quot;Verdana&quot;&gt;0x08048000&lt;/font&gt;" style="text;html=1;strokeColor=none;fillColor=none;align=center;verticalAlign=middle;whiteSpace=wrap;rounded=0;" parent="1" vertex="1">
          <mxGeometry x="520" y="490" width="90" height="20" as="geometry" />
        </mxCell>
        <mxCell id="khdtYhaCzw99SLC-Dacm-45" value="&lt;font face=&quot;Verdana&quot;&gt;offset&lt;/font&gt;" style="rounded=0;whiteSpace=wrap;html=1;fillColor=#CCCCCC;" parent="1" vertex="1">
          <mxGeometry x="200" y="500" width="320" height="20" as="geometry" />
        </mxCell>
        <mxCell id="khdtYhaCzw99SLC-Dacm-46" value="&lt;font face=&quot;Verdana&quot;&gt;0x00000000&lt;/font&gt;" style="text;html=1;strokeColor=none;fillColor=none;align=center;verticalAlign=middle;whiteSpace=wrap;rounded=0;" parent="1" vertex="1">
          <mxGeometry x="520" y="510" width="90" height="20" as="geometry" />
        </mxCell>
        <mxCell id="khdtYhaCzw99SLC-Dacm-47" value="" style="shape=curlyBracket;whiteSpace=wrap;html=1;rounded=0;flipH=1;labelPosition=right;verticalLabelPosition=middle;align=left;verticalAlign=middle;direction=east;" parent="1" vertex="1">
          <mxGeometry x="530" y="340" width="20" height="60" as="geometry" />
        </mxCell>
        <mxCell id="khdtYhaCzw99SLC-Dacm-48" value="&lt;font face=&quot;Verdana&quot;&gt;Max size&lt;/font&gt;" style="text;html=1;strokeColor=none;fillColor=none;align=left;verticalAlign=middle;whiteSpace=wrap;rounded=0;" parent="1" vertex="1">
          <mxGeometry x="560" y="360" width="60" height="20" as="geometry" />
        </mxCell>
        <mxCell id="khdtYhaCzw99SLC-Dacm-49" value="&lt;font face=&quot;Verdana&quot;&gt;3 GB (Linux, x32)&lt;/font&gt;" style="text;html=1;strokeColor=none;fillColor=none;align=center;verticalAlign=middle;whiteSpace=wrap;rounded=0;" parent="1" vertex="1">
          <mxGeometry x="50" y="330" width="120" height="20" as="geometry" />
        </mxCell>
        <mxCell id="khdtYhaCzw99SLC-Dacm-50" value="" style="shape=curlyBracket;whiteSpace=wrap;html=1;rounded=0;flipH=1;labelPosition=right;verticalLabelPosition=middle;align=left;verticalAlign=middle;direction=east;" parent="1" vertex="1">
          <mxGeometry x="530" y="280" width="20" height="60" as="geometry" />
        </mxCell>
        <mxCell id="khdtYhaCzw99SLC-Dacm-51" value="&lt;font face=&quot;Verdana&quot;&gt;Max size&lt;/font&gt;" style="text;html=1;strokeColor=none;fillColor=none;align=left;verticalAlign=middle;whiteSpace=wrap;rounded=0;" parent="1" vertex="1">
          <mxGeometry x="560" y="300" width="60" height="20" as="geometry" />
        </mxCell>
        <mxCell id="khdtYhaCzw99SLC-Dacm-52" value="&lt;font size=&quot;1&quot; style=&quot;&quot; face=&quot;Verdana&quot;&gt;&lt;b style=&quot;&quot;&gt;Possible access errors: Page Fault / Segmentation Fault&lt;/b&gt;&lt;/font&gt;" style="text;html=1;strokeColor=none;fillColor=none;align=center;verticalAlign=middle;whiteSpace=wrap;rounded=0;" parent="1" vertex="1">
          <mxGeometry x="180" y="80" width="360" height="40" as="geometry" />
        </mxCell>
        <mxCell id="khdtYhaCzw99SLC-Dacm-53" value="" style="endArrow=none;html=1;rounded=0;entryX=0;entryY=0;entryDx=0;entryDy=0;" parent="1" target="khdtYhaCzw99SLC-Dacm-3" edge="1">
          <mxGeometry width="50" height="50" relative="1" as="geometry">
            <mxPoint x="200" y="260" as="sourcePoint" />
            <mxPoint x="150" y="230" as="targetPoint" />
          </mxGeometry>
        </mxCell>
        <mxCell id="khdtYhaCzw99SLC-Dacm-54" value="" style="endArrow=none;html=1;rounded=0;entryX=0;entryY=0;entryDx=0;entryDy=0;exitX=0;exitY=0;exitDx=0;exitDy=0;" parent="1" source="khdtYhaCzw99SLC-Dacm-19" target="khdtYhaCzw99SLC-Dacm-12" edge="1">
          <mxGeometry width="50" height="50" relative="1" as="geometry">
            <mxPoint x="120" y="440" as="sourcePoint" />
            <mxPoint x="170" y="390" as="targetPoint" />
          </mxGeometry>
        </mxCell>
        <mxCell id="GZfBrPirwMgl9o36XDPX-2" value="&lt;font face=&quot;Verdana&quot;&gt;0xFFFFFFFF&lt;/font&gt;" style="text;html=1;strokeColor=none;fillColor=none;align=center;verticalAlign=middle;whiteSpace=wrap;rounded=0;" vertex="1" parent="1">
          <mxGeometry x="520" y="110" width="90" height="20" as="geometry" />
        </mxCell>
        <mxCell id="GZfBrPirwMgl9o36XDPX-4" value="" style="endArrow=none;html=1;rounded=0;dashed=1;dashPattern=1 1;" edge="1" parent="1">
          <mxGeometry width="50" height="50" relative="1" as="geometry">
            <mxPoint x="640" y="160" as="sourcePoint" />
            <mxPoint x="720" y="160" as="targetPoint" />
          </mxGeometry>
        </mxCell>
        <mxCell id="GZfBrPirwMgl9o36XDPX-5" value="" style="endArrow=none;html=1;rounded=0;dashed=1;dashPattern=1 1;" edge="1" parent="1">
          <mxGeometry width="50" height="50" relative="1" as="geometry">
            <mxPoint x="640" y="220" as="sourcePoint" />
            <mxPoint x="720" y="220" as="targetPoint" />
          </mxGeometry>
        </mxCell>
        <mxCell id="GZfBrPirwMgl9o36XDPX-6" value="" style="endArrow=none;html=1;rounded=0;dashed=1;dashPattern=1 1;" edge="1" parent="1">
          <mxGeometry width="50" height="50" relative="1" as="geometry">
            <mxPoint x="640" y="260" as="sourcePoint" />
            <mxPoint x="720" y="260" as="targetPoint" />
          </mxGeometry>
        </mxCell>
        <mxCell id="GZfBrPirwMgl9o36XDPX-7" value="" style="endArrow=none;html=1;rounded=0;dashed=1;dashPattern=1 1;" edge="1" parent="1">
          <mxGeometry width="50" height="50" relative="1" as="geometry">
            <mxPoint x="640" y="280" as="sourcePoint" />
            <mxPoint x="720" y="280" as="targetPoint" />
          </mxGeometry>
        </mxCell>
        <mxCell id="GZfBrPirwMgl9o36XDPX-8" value="" style="endArrow=none;html=1;rounded=0;dashed=1;dashPattern=1 1;" edge="1" parent="1">
          <mxGeometry width="50" height="50" relative="1" as="geometry">
            <mxPoint x="640" y="320" as="sourcePoint" />
            <mxPoint x="720" y="320" as="targetPoint" />
          </mxGeometry>
        </mxCell>
        <mxCell id="GZfBrPirwMgl9o36XDPX-9" value="" style="endArrow=none;html=1;rounded=0;dashed=1;dashPattern=1 1;" edge="1" parent="1">
          <mxGeometry width="50" height="50" relative="1" as="geometry">
            <mxPoint x="640" y="360" as="sourcePoint" />
            <mxPoint x="720" y="360" as="targetPoint" />
          </mxGeometry>
        </mxCell>
        <mxCell id="GZfBrPirwMgl9o36XDPX-10" value="" style="endArrow=none;html=1;rounded=0;dashed=1;dashPattern=1 1;" edge="1" parent="1" source="GZfBrPirwMgl9o36XDPX-1">
          <mxGeometry width="50" height="50" relative="1" as="geometry">
            <mxPoint x="640" y="400" as="sourcePoint" />
            <mxPoint x="720" y="400" as="targetPoint" />
          </mxGeometry>
        </mxCell>
        <mxCell id="GZfBrPirwMgl9o36XDPX-11" value="" style="endArrow=none;html=1;rounded=0;dashed=1;dashPattern=1 1;" edge="1" parent="1">
          <mxGeometry width="50" height="50" relative="1" as="geometry">
            <mxPoint x="640" y="420" as="sourcePoint" />
            <mxPoint x="720" y="420" as="targetPoint" />
          </mxGeometry>
        </mxCell>
        <mxCell id="GZfBrPirwMgl9o36XDPX-12" value="" style="endArrow=none;html=1;rounded=0;dashed=1;dashPattern=1 1;" edge="1" parent="1">
          <mxGeometry width="50" height="50" relative="1" as="geometry">
            <mxPoint x="640" y="500" as="sourcePoint" />
            <mxPoint x="720" y="500" as="targetPoint" />
          </mxGeometry>
        </mxCell>
        <mxCell id="GZfBrPirwMgl9o36XDPX-13" value="&lt;font style=&quot;font-size: 10px;&quot; face=&quot;Verdana&quot;&gt;&lt;b&gt;Virtual Address Space&lt;/b&gt;&lt;/font&gt;" style="text;html=1;strokeColor=none;fillColor=none;align=center;verticalAlign=middle;whiteSpace=wrap;rounded=0;" vertex="1" parent="1">
          <mxGeometry x="600" y="80" width="160" height="40" as="geometry" />
        </mxCell>
        <mxCell id="GZfBrPirwMgl9o36XDPX-14" value="" style="rounded=0;whiteSpace=wrap;html=1;fillColor=none;" vertex="1" parent="1">
          <mxGeometry x="800" y="120" width="80" height="400" as="geometry" />
        </mxCell>
        <mxCell id="GZfBrPirwMgl9o36XDPX-15" value="" style="endArrow=none;html=1;rounded=0;dashed=1;dashPattern=1 1;" edge="1" parent="1">
          <mxGeometry width="50" height="50" relative="1" as="geometry">
            <mxPoint x="800" y="160" as="sourcePoint" />
            <mxPoint x="880" y="160" as="targetPoint" />
          </mxGeometry>
        </mxCell>
        <mxCell id="GZfBrPirwMgl9o36XDPX-16" value="" style="endArrow=none;html=1;rounded=0;dashed=1;dashPattern=1 1;" edge="1" parent="1">
          <mxGeometry width="50" height="50" relative="1" as="geometry">
            <mxPoint x="800" y="200" as="sourcePoint" />
            <mxPoint x="880" y="200" as="targetPoint" />
          </mxGeometry>
        </mxCell>
        <mxCell id="GZfBrPirwMgl9o36XDPX-17" value="" style="endArrow=none;html=1;rounded=0;dashed=1;dashPattern=1 1;" edge="1" parent="1">
          <mxGeometry width="50" height="50" relative="1" as="geometry">
            <mxPoint x="800" y="240" as="sourcePoint" />
            <mxPoint x="880" y="240" as="targetPoint" />
          </mxGeometry>
        </mxCell>
        <mxCell id="GZfBrPirwMgl9o36XDPX-18" value="" style="endArrow=none;html=1;rounded=0;dashed=1;dashPattern=1 1;" edge="1" parent="1">
          <mxGeometry width="50" height="50" relative="1" as="geometry">
            <mxPoint x="800" y="280" as="sourcePoint" />
            <mxPoint x="880" y="280" as="targetPoint" />
          </mxGeometry>
        </mxCell>
        <mxCell id="GZfBrPirwMgl9o36XDPX-19" value="" style="endArrow=none;html=1;rounded=0;dashed=1;dashPattern=1 1;" edge="1" parent="1">
          <mxGeometry width="50" height="50" relative="1" as="geometry">
            <mxPoint x="800" y="320" as="sourcePoint" />
            <mxPoint x="880" y="320" as="targetPoint" />
          </mxGeometry>
        </mxCell>
        <mxCell id="GZfBrPirwMgl9o36XDPX-20" value="" style="endArrow=none;html=1;rounded=0;dashed=1;dashPattern=1 1;" edge="1" parent="1">
          <mxGeometry width="50" height="50" relative="1" as="geometry">
            <mxPoint x="800" y="360" as="sourcePoint" />
            <mxPoint x="880" y="360" as="targetPoint" />
          </mxGeometry>
        </mxCell>
        <mxCell id="GZfBrPirwMgl9o36XDPX-21" value="" style="endArrow=none;html=1;rounded=0;dashed=1;dashPattern=1 1;" edge="1" parent="1">
          <mxGeometry width="50" height="50" relative="1" as="geometry">
            <mxPoint x="800" y="400" as="sourcePoint" />
            <mxPoint x="880" y="400" as="targetPoint" />
          </mxGeometry>
        </mxCell>
        <mxCell id="GZfBrPirwMgl9o36XDPX-22" value="" style="endArrow=none;html=1;rounded=0;dashed=1;dashPattern=1 1;" edge="1" parent="1">
          <mxGeometry width="50" height="50" relative="1" as="geometry">
            <mxPoint x="800" y="440" as="sourcePoint" />
            <mxPoint x="880" y="440" as="targetPoint" />
          </mxGeometry>
        </mxCell>
        <mxCell id="GZfBrPirwMgl9o36XDPX-23" value="" style="endArrow=none;html=1;rounded=0;dashed=1;dashPattern=1 1;" edge="1" parent="1">
          <mxGeometry width="50" height="50" relative="1" as="geometry">
            <mxPoint x="800" y="480" as="sourcePoint" />
            <mxPoint x="880" y="480" as="targetPoint" />
          </mxGeometry>
        </mxCell>
        <mxCell id="GZfBrPirwMgl9o36XDPX-24" value="&lt;font style=&quot;font-size: 10px;&quot; face=&quot;Verdana&quot;&gt;&lt;b&gt;Physical Address Space&lt;/b&gt;&lt;/font&gt;" style="text;html=1;strokeColor=none;fillColor=none;align=center;verticalAlign=middle;whiteSpace=wrap;rounded=0;" vertex="1" parent="1">
          <mxGeometry x="760" y="80" width="160" height="40" as="geometry" />
        </mxCell>
        <mxCell id="GZfBrPirwMgl9o36XDPX-38" value="" style="endArrow=blockThin;html=1;rounded=0;exitX=1;exitY=0.5;exitDx=0;exitDy=0;entryX=0;entryY=0.5;entryDx=0;entryDy=0;endFill=1;" edge="1" parent="1" source="GZfBrPirwMgl9o36XDPX-32" target="GZfBrPirwMgl9o36XDPX-25">
          <mxGeometry width="50" height="50" relative="1" as="geometry">
            <mxPoint x="730" y="140" as="sourcePoint" />
            <mxPoint x="821.2" y="170" as="targetPoint" />
            <Array as="points">
              <mxPoint x="780" y="140" />
            </Array>
          </mxGeometry>
        </mxCell>
        <mxCell id="GZfBrPirwMgl9o36XDPX-39" value="" style="endArrow=blockThin;html=1;rounded=0;exitX=1;exitY=0.5;exitDx=0;exitDy=0;entryX=0;entryY=0.5;entryDx=0;entryDy=0;endFill=1;" edge="1" parent="1" source="GZfBrPirwMgl9o36XDPX-36" target="GZfBrPirwMgl9o36XDPX-27">
          <mxGeometry width="50" height="50" relative="1" as="geometry">
            <mxPoint x="740" y="250" as="sourcePoint" />
            <mxPoint x="790" y="200" as="targetPoint" />
            <Array as="points">
              <mxPoint x="760" y="200" />
              <mxPoint x="760" y="220" />
            </Array>
          </mxGeometry>
        </mxCell>
        <mxCell id="GZfBrPirwMgl9o36XDPX-40" value="" style="endArrow=blockThin;html=1;rounded=0;exitX=1;exitY=0.5;exitDx=0;exitDy=0;entryX=0;entryY=0.5;entryDx=0;entryDy=0;endFill=1;" edge="1" parent="1" source="GZfBrPirwMgl9o36XDPX-33" target="GZfBrPirwMgl9o36XDPX-26">
          <mxGeometry width="50" height="50" relative="1" as="geometry">
            <mxPoint x="740" y="310" as="sourcePoint" />
            <mxPoint x="790" y="260" as="targetPoint" />
          </mxGeometry>
        </mxCell>
        <mxCell id="GZfBrPirwMgl9o36XDPX-42" value="" style="endArrow=blockThin;html=1;rounded=0;exitX=1;exitY=0.5;exitDx=0;exitDy=0;endFill=1;entryX=0;entryY=0.5;entryDx=0;entryDy=0;" edge="1" parent="1" source="GZfBrPirwMgl9o36XDPX-35" target="GZfBrPirwMgl9o36XDPX-29">
          <mxGeometry width="50" height="50" relative="1" as="geometry">
            <mxPoint x="750" y="430" as="sourcePoint" />
            <mxPoint x="780" y="340" as="targetPoint" />
            <Array as="points">
              <mxPoint x="760" y="380" />
              <mxPoint x="760" y="340" />
            </Array>
          </mxGeometry>
        </mxCell>
        <mxCell id="GZfBrPirwMgl9o36XDPX-43" value="" style="endArrow=blockThin;html=1;rounded=0;exitX=1;exitY=0.5;exitDx=0;exitDy=0;entryX=0;entryY=0.5;entryDx=0;entryDy=0;endFill=1;" edge="1" parent="1" source="GZfBrPirwMgl9o36XDPX-37" target="GZfBrPirwMgl9o36XDPX-30">
          <mxGeometry width="50" height="50" relative="1" as="geometry">
            <mxPoint x="760" y="540" as="sourcePoint" />
            <mxPoint x="810" y="490" as="targetPoint" />
            <Array as="points">
              <mxPoint x="760" y="440" />
              <mxPoint x="760" y="420" />
            </Array>
          </mxGeometry>
        </mxCell>
        <mxCell id="GZfBrPirwMgl9o36XDPX-45" value="" style="endArrow=none;html=1;rounded=0;dashed=1;dashPattern=1 1;" edge="1" parent="1">
          <mxGeometry width="50" height="50" relative="1" as="geometry">
            <mxPoint x="640" y="180" as="sourcePoint" />
            <mxPoint x="720" y="180" as="targetPoint" />
          </mxGeometry>
        </mxCell>
        <mxCell id="GZfBrPirwMgl9o36XDPX-46" value="" style="endArrow=none;html=1;rounded=0;dashed=1;dashPattern=1 1;" edge="1" parent="1">
          <mxGeometry width="50" height="50" relative="1" as="geometry">
            <mxPoint x="640" y="460" as="sourcePoint" />
            <mxPoint x="720" y="460" as="targetPoint" />
          </mxGeometry>
        </mxCell>
        <mxCell id="GZfBrPirwMgl9o36XDPX-47" value="" style="rounded=0;whiteSpace=wrap;html=1;fillColor=#CCCCCC;strokeColor=none;" vertex="1" parent="1">
          <mxGeometry x="640" y="460" width="80" height="40" as="geometry" />
        </mxCell>
        <mxCell id="GZfBrPirwMgl9o36XDPX-48" value="" style="endArrow=blockThin;html=1;rounded=0;exitX=1;exitY=0.5;exitDx=0;exitDy=0;entryX=0;entryY=0.5;entryDx=0;entryDy=0;endFill=1;" edge="1" parent="1">
          <mxGeometry width="50" height="50" relative="1" as="geometry">
            <mxPoint x="720" y="480" as="sourcePoint" />
            <mxPoint x="800" y="460" as="targetPoint" />
            <Array as="points">
              <mxPoint x="760" y="480" />
              <mxPoint x="760" y="460" />
            </Array>
          </mxGeometry>
        </mxCell>
        <mxCell id="GZfBrPirwMgl9o36XDPX-49" value="" style="endArrow=none;html=1;rounded=0;dashed=1;dashPattern=1 1;" edge="1" parent="1" target="GZfBrPirwMgl9o36XDPX-1">
          <mxGeometry width="50" height="50" relative="1" as="geometry">
            <mxPoint x="640" y="400" as="sourcePoint" />
            <mxPoint x="720" y="400" as="targetPoint" />
          </mxGeometry>
        </mxCell>
        <mxCell id="GZfBrPirwMgl9o36XDPX-1" value="" style="rounded=0;whiteSpace=wrap;html=1;fillColor=none;" vertex="1" parent="1">
          <mxGeometry x="640" y="120" width="80" height="400" as="geometry" />
        </mxCell>
      </root>
    </mxGraphModel>
  </diagram>
</mxfile>
